# xmcd
#
# Track frame offsets:
# 150
# 574
# 25570
# 48845
# 72941
# 106806
# 124392
# 150504
# 179670
# 194820
# 227541
# 248297
# 299622
#
# Disc length: 4365 seconds
#
# Revision: 0
# Processed by: cddbd v1.4PL0 Copyright (c) Steve Scherf et al.
# Submitted via: Audion 2.6.0 (http://www.panic.com/audion/)
#
DISCID=a8110b0d
DTITLE=Bob Dylan - Mix #1
DYEAR=1900
DGENRE=
TTITLE0=blank
TTITLE1=Mr. Tambourine Man
TTITLE2=Things Have Changed
TTITLE3=Love Sick
TTITLE4=Visions of Johanna
TTITLE5=Positively 4th Street
TTITLE6=Series of Dreams
TTITLE7=Not Dark Yet
TTITLE8=Girl From the North Country
TTITLE9=Cold Irons Bound
TTITLE10=4th Time Around
TTITLE11=Desolation Row
TTITLE12=Like a Rolling Stone
EXTD=
EXTT0=
EXTT1=
EXTT2=
EXTT3=
EXTT4=
EXTT5=
EXTT6=
EXTT7=
EXTT8=
EXTT9=
EXTT10=
EXTT11=
EXTT12=
PLAYORDER=
